<svg width="3765" height="1050" xmlns="http://www.w3.org/2000/svg"><defs><linearGradient id="a" x1="760" x2="880" y1="840" y2="390" gradientUnits="userSpaceOnUse"><stop offset=".6" stop-opacity="0"/><stop offset="1"/></linearGradient></defs><path fill="#ee3934" d="M1040 0 0 260l200 100 510-130 40 20-510 130v300l40 20V400l240 120v200l520 260V390l520-130z"/><path fill="url(#a)" d="M1040 390v590L520 720V520Z" opacity=".3"/><path fill="#ee3934" d="M1912 450h75l-159-336h-20l-171 336h75l32-62h139zm-134-130 38-74 35 74zm454 130-102-120 84-87h-82l-61 67V93h-67v357h67v-70l14-14 69 84zm186-207-5 20c-19-17-44-26-71-26a109 109 0 1 0 0 219c27 0 52-10 71-26v20h51V243Zm-30 143a52 52 0 0 1-38 16c-14 0-28-5-38-16a58 58 0 0 1 0-80c10-10 24-16 38-16a55 55 0 0 1 54 56c0 15-5 29-16 40zm299 64h56V93h-56v175a110 110 0 1 0 0 157zm-123-103c0-15 5-29 16-40 10-11 23-16 37-16 15 0 29 5 39 16s16 25 16 40-6 29-16 40a53 53 0 0 1-76 0 58 58 0 0 1-16-40zm280-193 77-67 55 39-104 49zm83 233a51 51 0 0 1-35 15c-14 0-27-5-37-16-6-6-10-13-12-20h154c2-7 2-13 2-20a110 110 0 1 0-27 71zm-85-58c2-9 7-17 13-23 10-11 23-17 37-17 13 0 26 6 36 17 6 6 11 14 13 23zm248-86h-46v207h57V331c6-22 21-40 44-40 27 0 47 27 47 56v103h53V344c1-26 19-53 46-53s46 27 46 56v103h54V347c0-61-42-110-93-110-30 0-57 16-73 41a89 89 0 0 0-73-41c-19 0-38 9-53 22zm348-62v-67h62v67zm0 269V243h62v207Zm281-207-5 20c-19-17-44-26-71-26a109 109 0 1 0 0 219c27 0 52-10 71-26v20h51V243Zm-30 143a52 52 0 0 1-38 16c-15 0-28-5-39-16a58 58 0 0 1 0-80c11-10 24-16 39-16 14 0 28 6 38 16 10 11 16 25 16 40s-6 29-16 40zM1644 564v67h94v269h67V631h93v-67zm300 129h-46v207h60V786c6-33 42-54 77-39l23-53c-11-4-23-6-35-6-27 0-55 8-70 29zm240-6c-63 0-114 49-114 109 0 61 51 110 114 110 64 0 115-49 115-110 0-60-51-109-115-109zm39 150a53 53 0 0 1-38 16c-14 0-28-6-37-16a55 55 0 0 1-17-41c0-15 5-29 17-40 9-11 23-16 37-16 15 0 28 5 38 16a59 59 0 0 1 0 81zm108-205v-68h63v68zm-39 418v-58h16c21 0 24-23 24-35V693h62v264c0 54-34 93-80 93zm134-182c25 26 61 38 98 38 43 0 77-32 77-65 0-36-28-55-57-64-24-8-47-11-44-26 3-22 30-25 70 4l28-44c-28-16-47-24-82-24-40 0-74 25-74 63 0 40 28 52 68 65 16 4 31 9 31 25 0 25-46 24-77-11zm307-175v-77h-61v77h-43v56h43v151h61V749h48v-56zm221 144a51 51 0 0 1-35 15c-14 0-27-5-37-16-5-6-9-13-12-20h154c2-7 2-13 2-20a110 110 0 1 0-26 71zm-85-58c3-9 7-17 13-23a48 48 0 0 1 73 0c7 6 11 14 13 23zm233-86h-49v207h60V797c0-29 21-56 50-56s50 27 50 56v103h59V797c0-61-46-110-102-110-21 0-42 10-59 24zm421 0h-61v101c0 15-6 28-14 38-9 10-21 16-33 16s-25-6-34-16c-8-10-13-23-13-38V693h-62v103c0 61 53 110 109 110 55 0 108-49 108-110z" aria-label="Akadémia Trojstenu" font-family="Jaapokki" font-size="48"/></svg>
