<svg width="3651" height="980" xmlns="http://www.w3.org/2000/svg"><defs><linearGradient id="a" x1="760" x2="880" y1="840" y2="390" gradientUnits="userSpaceOnUse"><stop offset=".6" stop-opacity="0"/><stop offset="1"/></linearGradient></defs><path fill="#ee3934" d="M1040 0 0 260l200 100 510-130 40 20-510 130v300l40 20V400l240 120v200l520 260V390l520-130z"/><path fill="url(#a)" d="M1040 390v590L520 720V520Z" opacity=".3"/><path fill="#ee3934" d="M1750 73h56l110 287h-57l-22-59h-117l-24 59h-56zm28 76-38 98h77zm175-84h54v170l78-88h67l-92 102 103 111h-66l-90-98v98h-54zm389 82h53v213h-53v-22q-16 14-32 21-15 6-34 6-41 0-71-31-30-32-30-80 0-49 29-81 29-31 71-31 19 0 36 7t31 22zm-56 44q-25 0-41 18-17 17-17 45 0 27 17 45t41 18q25 0 42-18 16-17 16-46 0-27-16-45-17-17-42-17zm320-126h53v295h-53v-22q-16 14-31 21-16 6-34 6-42 0-72-31-30-32-30-80 0-49 29-81 29-31 71-31 19 0 36 7t31 22zm-56 126q-25 0-41 18-17 17-17 45 0 27 17 45t41 18q25 0 42-18 17-17 17-46 0-27-17-45-17-17-42-17zm376 78h-171q3 23 19 36 17 14 42 14 29 0 51-21l45 21q-17 24-40 35-24 11-56 11-50 0-82-31-31-32-31-79 0-49 31-81 32-32 79-32 50 0 82 32 31 32 31 85zm-54-42q-5-18-21-29-15-11-35-11-23 0-40 13-10 7-19 27zm-49-195h63l-71 77h-38zm146 115h53v25q14-15 30-23 17-7 37-7t36 10q16 10 26 28 12-18 31-28 18-10 40-10 23 0 40 11 17 10 25 27 7 17 7 55v125h-53V252q0-36-9-49t-27-13q-14 0-25 8t-16 22q-5 14-5 44v96h-54V257q0-28-4-41t-13-19q-8-7-20-7-13 0-24 8t-17 23q-5 14-5 44v95h-53zm397-87q14 0 24 10t10 25q0 14-10 24t-24 10q-14 0-24-10t-10-25q0-14 10-24t24-10zm-27 87h54v213h-54zm259 0h53v213h-53v-22q-16 14-31 21-16 6-34 6-42 0-72-31-30-32-30-80 0-49 29-81 29-31 71-31 19 0 36 7t31 22zm-56 44q-25 0-41 18-17 17-17 45 0 27 17 45t41 18q25 0 42-18 16-17 16-46 0-27-16-45-17-17-42-17zM1634 573h159v54h-52v233h-56V627h-51zm178 74h46v27q8-16 20-24t27-8q10 0 21 5l-16 46q-9-4-16-4-12 0-20 15-9 15-9 60v96h-53zm241-5q30 0 56 15 27 15 42 41 14 26 14 56t-15 56q-15 26-40 41-26 14-57 14-46 0-78-32-33-33-33-79 0-50 37-83 32-29 74-29zm0 50q-24 0-41 18-16 17-16 44t16 45q16 17 41 17t42-18q16-17 16-44 0-28-16-45t-42-17zm181-132q14 0 24 10t10 25q0 14-10 24t-24 10q-14 0-24-10t-10-25q0-14 10-24t24-10zm-27 87h54v220q0 30-6 45t-19 23q-13 8-31 8-16 0-40-8v-42q12 6 22 6t15-6q5-6 5-22zm236 30-33 33q-20-20-37-20-9 0-14 4t-5 10q0 4 3 8l16 9 20 10q31 15 42 31 12 16 12 37 0 29-21 48-21 18-56 18-46 0-74-36l33-36q9 11 22 18 12 7 22 7 11 0 17-5 7-5 7-12 0-12-24-24l-18-9q-51-26-51-65 0-25 19-43 20-18 50-18 21 0 39 9t31 26zm52-108h53v78h32v46h-32v167h-53V693h-27v-46h27zm327 200h-172q4 23 20 36 16 14 41 14 30 0 52-21l45 21q-17 24-41 35-23 11-55 11-50 0-82-31-31-32-31-79 0-49 31-81t79-32q50 0 81 32 32 32 32 85zm-54-42q-5-18-21-29-15-11-36-11-22 0-39 13-10 7-19 27zm97-80h53v22q18-15 33-21t30-6q32 0 54 22 18 19 18 56v140h-52v-93q0-38-4-51-3-12-12-19-8-6-21-6-16 0-28 11-11 10-16 29-2 10-2 44v85h-53zm240 0h54v103q0 30 4 41 4 12 13 18 9 7 22 7t23-6q9-7 13-19 4-9 4-39V647h53v91q0 55-8 76-11 25-32 38t-53 13q-35 0-57-15-21-16-30-44-6-19-6-70z" aria-label="Akadémia Trojstenu" font-family="Century Gothic" font-size="400" font-weight="700"/></svg>
