<svg width="119" height="32" viewBox="0 0 119 32" fill="none" xmlns="http://www.w3.org/2000/svg">
<g clip-path="url(#clip0_202_998)">
<path d="M117.868 15.8513C117.868 24.4374 110.908 31.3977 102.322 31.3977C93.736 31.3977 86.7758 24.4374 86.7758 15.8513C86.7758 7.26527 93.736 0.304993 102.322 0.304993C110.908 0.304993 117.868 7.26527 117.868 15.8513V15.8513Z" fill="black" stroke="white" stroke-width="0.621621"/>
<path d="M75.101 15.8513C75.101 24.4374 68.1408 31.3977 59.5546 31.3977C50.9685 31.3977 44.0083 24.4374 44.0083 15.8513C44.0083 7.26527 50.9685 0.304993 59.5546 0.304993C68.1408 0.304993 75.101 7.26527 75.101 15.8513Z" fill="black" stroke="white" stroke-width="0.621621"/>
<path d="M32.2713 15.8513C32.2713 24.4374 25.311 31.3977 16.7249 31.3977C8.1388 31.3977 1.17859 24.4374 1.17859 15.8513C1.17859 7.26527 8.1388 0.304993 16.7249 0.304993C25.311 0.304993 32.2713 7.26527 32.2713 15.8513Z" fill="black" stroke="white" stroke-width="0.621621"/>
<path d="M115.918 15.8513C115.918 23.3599 109.83 29.4468 102.322 29.4468C94.8135 29.4468 88.7264 23.3599 88.7264 15.8513C88.7264 8.34276 94.8135 2.25586 102.322 2.25586C109.83 2.25586 115.918 8.34276 115.918 15.8513V15.8513Z" fill="black" stroke="white" stroke-width="0.745944"/>
<path d="M76.1746 15.3054V14.9954H76.4846H82.8495C82.6016 14.1836 82.4709 13.5574 82.4564 12.7449L83.0458 12.6051C83.7555 14.0829 84.6717 14.8501 85.8147 15.5906L86.2249 15.8564L85.8097 16.1142C84.683 16.8137 83.7987 17.6604 83.0409 19.1066L82.4567 18.947C82.5015 18.0681 82.6157 17.4875 82.8654 16.6349H76.4846H76.1746V16.3249V15.3054Z" fill="black" stroke="white" stroke-width="0.62"/>
<path d="M33.3449 15.3054V14.9954H33.6549H40.0197C39.7719 14.1836 39.6412 13.5574 39.6267 12.7449L40.2161 12.6051C40.9258 14.0829 41.8419 14.8501 42.985 15.5906L43.3952 15.8564L42.98 16.1142C41.8533 16.8137 40.969 17.6604 40.2112 19.1066L39.627 18.947C39.6717 18.0681 39.786 17.4875 40.0357 16.6349H33.6549H33.3449V16.3249V15.3054Z" fill="black" stroke="white" stroke-width="0.62"/>
<path d="M12.0468 21.8766H14.7469V17.9429L15.7668 16.6729L18.734 21.8766H21.9004L17.7142 14.9563L21.7037 9.82592H18.3407L15.6236 13.8295C15.337 14.2598 15.0504 14.6891 14.7834 15.1535H14.7469V9.82592H12.0468V21.8766Z" fill="white"/>
<path d="M55.4241 21.3035C56.1016 21.6804 57.4614 22.0568 58.8381 22.0568C62.1454 22.0568 63.6849 20.34 63.6849 18.3197C63.6849 16.6196 62.7014 15.5104 60.572 14.7231C58.9984 14.1331 58.338 13.7936 58.338 13.0257C58.338 12.4163 58.911 11.8627 60.0911 11.8627C61.2518 11.8627 62.1284 12.2026 62.5946 12.4357L63.2017 10.2533C62.4853 9.91279 61.5019 9.64574 60.1251 9.64574C57.3011 9.64574 55.5649 11.2022 55.5649 13.2588C55.5649 15.0096 56.8884 16.1198 58.8916 16.8332C60.3412 17.3363 60.9119 17.7637 60.9119 18.516C60.9119 19.3027 60.2513 19.8199 58.9984 19.8199C57.8377 19.8199 56.6917 19.4436 55.9777 19.0696L55.4241 21.3035Z" fill="white"/>
<path d="M98.4923 21.9218H101.193V17.5947C101.443 17.6482 101.766 17.6652 102.123 17.6652C103.732 17.6652 105.109 17.2548 106.039 16.3977C106.773 15.7347 107.147 14.7149 107.147 13.5348C107.147 12.3547 106.646 11.3543 105.86 10.7472C105.056 10.1013 103.856 9.78083 102.176 9.78083C100.513 9.78083 99.3325 9.88762 98.4923 10.031V21.9218ZM101.193 11.9443C101.389 11.891 101.766 11.8546 102.302 11.8546C103.679 11.8546 104.446 12.5174 104.446 13.6247C104.446 14.8412 103.553 15.5744 102.106 15.5744C101.693 15.5744 101.426 15.5551 101.193 15.5017V11.9443Z" fill="white"/>
</g>
<defs>
<clipPath id="clip0_202_998">
<rect width="117.362" height="31.7026" fill="white" transform="translate(0.873657)"/>
</clipPath>
</defs>
</svg>
