<svg width="114" height="52" viewBox="0 0 114 52" fill="none" xmlns="http://www.w3.org/2000/svg">
<path d="M53.2372 32.317V34.6939H47.0268V37.6639H52.4091V39.8594H47.0268V45.17H44.2007V32.317H53.2372Z" fill="black"/>
<path d="M60.9562 38.7431C60.9562 45.5021 55.4777 50.9807 48.7191 50.9807C41.9605 50.9807 36.4819 45.5021 36.4819 38.7431C36.4819 31.9845 41.9605 26.5064 48.7191 26.5064C55.4777 26.5064 60.9562 31.9845 60.9562 38.7431Z" stroke="black" stroke-width="1.56222" stroke-miterlimit="10"/>
<path d="M98.3002 42.0103C98.456 42.3109 98.663 42.5536 98.9214 42.7395C99.1789 42.9254 99.4821 43.0638 99.8302 43.1538C100.178 43.2438 100.538 43.2886 100.91 43.2886C101.162 43.2886 101.432 43.2676 101.72 43.2255C102.008 43.1834 102.278 43.1023 102.53 42.9827C102.782 42.8622 102.992 42.6974 103.16 42.4869C103.329 42.2777 103.412 42.0103 103.412 41.6865C103.412 41.3381 103.301 41.0563 103.08 40.8405C102.857 40.6241 102.566 40.4441 102.207 40.3003C101.846 40.1561 101.438 40.0302 100.982 39.9223C100.526 39.8139 100.064 39.6943 99.5964 39.5622C99.1162 39.4431 98.6482 39.2953 98.1922 39.1215C97.7358 38.9477 97.3283 38.7224 96.9682 38.4465C96.6081 38.1702 96.3169 37.8249 96.0952 37.411C95.8731 36.9972 95.762 36.496 95.762 35.9079C95.762 35.2482 95.9031 34.6753 96.1848 34.1889C96.467 33.7025 96.8356 33.2985 97.292 32.9738C97.7479 32.65 98.2639 32.4095 98.8403 32.2541C99.4163 32.0982 99.9923 32.0194 100.568 32.0194C101.24 32.0194 101.885 32.0951 102.503 32.2446C103.121 32.3951 103.67 32.6383 104.15 32.9738C104.63 33.3097 105.011 33.7392 105.293 34.2606C105.575 34.7828 105.717 35.4161 105.717 36.1601H102.98C102.956 35.7762 102.875 35.4582 102.737 35.2061C102.599 34.9544 102.416 34.7559 102.188 34.6113C101.96 34.468 101.699 34.3663 101.405 34.3063C101.111 34.2458 100.79 34.2162 100.442 34.2162C100.214 34.2162 99.986 34.2404 99.758 34.2879C99.5301 34.3358 99.3232 34.4205 99.1373 34.5396C98.951 34.6605 98.7978 34.8101 98.6782 34.9902C98.5582 35.1707 98.4981 35.3978 98.4981 35.6741C98.4981 35.9263 98.5461 36.1305 98.6424 36.2859C98.7382 36.4422 98.9272 36.5864 99.2089 36.7181C99.4911 36.8503 99.8812 36.9819 100.379 37.1141C100.877 37.2462 101.529 37.4141 102.332 37.6179C102.572 37.6663 102.905 37.7527 103.331 37.879C103.757 38.0054 104.18 38.206 104.601 38.4823C105.02 38.7582 105.383 39.1273 105.69 39.5891C105.995 40.0513 106.148 40.6421 106.148 41.3627C106.148 41.9508 106.034 42.4959 105.806 43.0006C105.578 43.5045 105.24 43.9394 104.79 44.3058C104.339 44.6712 103.781 44.9565 103.115 45.1603C102.449 45.3641 101.678 45.4667 100.802 45.4667C100.094 45.4667 99.4074 45.3793 98.7413 45.2056C98.0753 45.0318 97.4868 44.759 96.9771 44.3864C96.467 44.0151 96.0616 43.5403 95.762 42.9648C95.4619 42.3884 95.3177 41.704 95.3298 40.9126H98.0664C98.0664 41.3443 98.1439 41.7103 98.3002 42.0103Z" fill="black"/>
<path d="M112.976 38.7431C112.976 45.5021 107.497 50.9807 100.739 50.9807C93.9807 50.9807 88.5017 45.5021 88.5017 38.7431C88.5017 31.9845 93.9807 26.5064 100.739 26.5064C107.497 26.5064 112.976 31.9845 112.976 38.7431Z" stroke="black" stroke-width="1.56222" stroke-miterlimit="10"/>
<path d="M86.9673 38.7431C86.9673 45.5021 81.4887 50.9807 74.7301 50.9807C67.9715 50.9807 62.4926 45.5021 62.4926 38.7431C62.4926 31.9845 67.9715 26.5064 74.7301 26.5064C81.4887 26.5064 86.9673 31.9845 86.9673 38.7431Z" stroke="black" stroke-width="1.56222" stroke-miterlimit="10"/>
<path d="M71.6257 32.317V37.6451L76.6483 32.317H80.1767L75.1546 37.3933L80.6631 45.17H77.1163L73.2457 39.3914L71.6257 41.0297V45.17H68.7991V32.317H71.6257Z" fill="black"/>
<path d="M24.1597 34.5328C21.2506 40.633 13.947 43.22 7.84678 40.3114C1.74658 37.4029 -0.840855 30.0992 2.06816 23.9985C4.97718 17.8979 12.2804 15.3109 18.381 18.2199C24.4812 21.1285 27.0687 28.4322 24.1597 34.5328Z" fill="black"/>
<path d="M24.1597 34.5328C21.2506 40.633 13.947 43.22 7.84678 40.3114C1.74658 37.4029 -0.840855 30.0992 2.06816 23.9985C4.97718 17.8979 12.2804 15.3109 18.381 18.2199C24.4812 21.1285 27.0687 28.4322 24.1597 34.5328Z" stroke="black" stroke-width="1.56222" stroke-miterlimit="10"/>
<path d="M49.2723 6.58515H48.1655V26.5067H49.2723V6.58515Z" fill="black"/>
<path d="M27.4543 0.476039L26.4555 -6.34978e-05L17.8812 17.9821L18.88 18.4582L27.4543 0.476039Z" fill="black"/>
<path d="M75.2837 6.58515H74.1765V26.5067H75.2837V6.58515Z" fill="black"/>
<path d="M101.292 6.58515H100.185V26.5067H101.292V6.58515Z" fill="black"/>
</svg>
