<svg width="107" height="34" viewBox="0 0 107 34" fill="none" xmlns="http://www.w3.org/2000/svg">
<path fill-rule="evenodd" clip-rule="evenodd" d="M48.9426 23.547C49.0221 23.4536 49.0344 23.142 48.9044 23.1373C46.8215 23.0624 44.7978 22.0669 44.7305 19.4659L44.7348 19.0232L45.3566 9.65335C48.4416 11.5783 52.6958 13.5579 56.3016 15.721C56.3606 15.7564 60.3797 12.2935 62.9789 11.5367L63.5012 17.2903C63.3539 18.9108 60.86 19.724 59.6668 20.1688C59.5379 20.2169 59.5455 20.624 59.6784 20.6126C61.0159 20.4976 65.5332 19.0719 65.5332 19.0719L64.5384 8.63255C64.5384 8.63255 64.3016 8.44334 64.1116 8.38321C63.9216 8.32309 63.7783 8.39187 63.7783 8.39187C62.7639 8.86533 59.5189 10.1746 55.7014 14.0632C52.6399 12.615 48.2529 9.93592 45.2627 7.33459C44.7795 6.9143 44.6861 7.0545 44.3368 6.96654C44.1224 6.9126 43.835 7.00225 43.835 7.00225L42.4613 25.4407C44.1774 24.7993 45.9364 24.5712 47.6729 23.9781C47.6729 23.9781 48.7268 23.8004 48.9426 23.547" fill="black"/>
<path d="M48.9426 23.547C49.0221 23.4536 49.0344 23.142 48.9044 23.1373C46.8215 23.0624 44.7978 22.0669 44.7305 19.4659L44.7348 19.0232L45.3566 9.65335C48.4416 11.5783 52.6958 13.5579 56.3016 15.721C56.3606 15.7564 60.3797 12.2935 62.9789 11.5367L63.5012 17.2903C63.3539 18.9108 60.86 19.724 59.6668 20.1688C59.5379 20.2169 59.5455 20.624 59.6784 20.6126C61.0159 20.4976 65.5332 19.0719 65.5332 19.0719L64.5384 8.63255C64.5384 8.63255 64.3016 8.44334 64.1116 8.38321C63.9216 8.32309 63.7783 8.39187 63.7783 8.39187C62.7639 8.86533 59.5189 10.1746 55.7014 14.0632C52.6399 12.615 48.2529 9.93592 45.2627 7.33459C44.7795 6.9143 44.6861 7.0545 44.3368 6.96654C44.1224 6.9126 43.835 7.00225 43.835 7.00225L42.4613 25.4407C44.1774 24.7993 45.9364 24.5712 47.6729 23.9781C47.6729 23.9781 48.7268 23.8004 48.9426 23.547V23.547Z" stroke="black" stroke-width="0.15305" stroke-miterlimit="10"/>
<path fill-rule="evenodd" clip-rule="evenodd" d="M53.9911 20.4425C52.5135 20.8544 51.3106 21.6639 49.8003 22.9132C49.7408 22.9932 49.7616 23.2154 49.8465 23.165C53.2845 21.1239 55.0337 20.6034 58.8152 20.4936C58.8551 20.4924 58.8557 20.4176 58.8158 20.4172C58.3716 20.4126 55.6815 19.9446 53.9911 20.4425Z" fill="black"/>
<path d="M53.9911 20.4425C52.5135 20.8544 51.3106 21.6639 49.8003 22.9132C49.7408 22.9932 49.7616 23.2154 49.8465 23.165C53.2845 21.1239 55.0337 20.6034 58.8152 20.4936C58.8551 20.4924 58.8557 20.4176 58.8158 20.4172C58.3716 20.4126 55.6815 19.9446 53.9911 20.4425Z" stroke="black" stroke-width="0.15305" stroke-miterlimit="10"/>
<path fill-rule="evenodd" clip-rule="evenodd" d="M62.9412 7.96898C63.4244 8.1469 63.3168 7.9189 62.9588 7.76494C58.5972 5.88934 56.3604 5.32205 52.8184 5.48405C50.3296 5.59596 48.2318 6.05984 45.6558 6.56421C45.078 6.67736 45.5501 6.82637 45.9788 6.76608C47.4992 6.552 50.3453 6.38769 51.2056 6.34441C52.96 6.25599 54.1173 6.19138 57.1835 6.66298C58.8011 6.91169 60.524 7.07864 62.9412 7.96898" fill="black"/>
<path d="M62.9412 7.96898C63.4244 8.1469 63.3168 7.9189 62.9588 7.76494C58.5972 5.88934 56.3604 5.32205 52.8184 5.48405C50.3296 5.59596 48.2318 6.05984 45.6558 6.56421C45.078 6.67736 45.5501 6.82637 45.9788 6.76608C47.4992 6.552 50.3453 6.38769 51.2056 6.34441C52.96 6.25599 54.1173 6.19138 57.1835 6.66298C58.8011 6.91169 60.524 7.07864 62.9412 7.96898V7.96898Z" stroke="black" stroke-width="0.15305" stroke-miterlimit="10"/>
<path fill-rule="evenodd" clip-rule="evenodd" d="M97.7196 20.5977C97.6262 20.5184 97.314 20.506 97.3093 20.6357C97.2343 22.716 97.3447 24.4515 95.0488 24.9505L94.6055 24.9462L84.9826 24.7566C86.263 20.3042 88.6742 15.2859 90.1558 12.8487C89.2662 11.2262 87.8319 9.59742 85.6591 6.1937L91.4207 5.67217C93.0055 5.94916 93.8912 8.69657 94.3367 9.88818C94.3849 10.0171 94.7924 10.0094 94.7811 9.87674C94.6661 8.54091 93.2383 4.02981 93.2383 4.02981L82.7844 5.02342C82.7844 5.02342 82.5951 5.25976 82.535 5.44958C82.4747 5.63924 82.5436 5.78238 82.5436 5.78238C85.7714 9.49 86.5938 10.4162 88.5402 12.8348C85.2168 16.9862 83.9822 19.0725 81.4849 24.2726C81.2078 24.8497 81.2044 24.8483 81.1163 25.1973C81.0623 25.4113 81.152 25.6982 81.152 25.6982L99.6159 27.0701C98.9735 25.3565 98.7452 23.5996 98.1513 21.8656C98.1513 21.8656 97.9734 20.8131 97.7196 20.5977" fill="black"/>
<path d="M97.7196 20.5977C97.6262 20.5184 97.314 20.506 97.3093 20.6357C97.2343 22.716 97.3447 24.4515 95.0488 24.9505L94.6055 24.9462L84.9826 24.7566C86.263 20.3042 88.6742 15.2859 90.1558 12.8487C89.2662 11.2262 87.8319 9.59742 85.6591 6.1937L91.4207 5.67217C93.0055 5.94916 93.8912 8.69657 94.3367 9.88818C94.3849 10.0171 94.7924 10.0094 94.7811 9.87674C94.6661 8.54091 93.2383 4.02981 93.2383 4.02981L82.7844 5.02342C82.7844 5.02342 82.5951 5.25976 82.535 5.44958C82.4747 5.63924 82.5436 5.78238 82.5436 5.78238C85.7714 9.49 86.5938 10.4162 88.5402 12.8348C85.2168 16.9862 83.9822 19.0725 81.4849 24.2726C81.2078 24.8497 81.2044 24.8483 81.1163 25.1973C81.0623 25.4113 81.152 25.6982 81.152 25.6982L99.6159 27.0701C98.9735 25.3565 98.7452 23.5996 98.1513 21.8656C98.1513 21.8656 97.9734 20.8131 97.7196 20.5977V20.5977Z" stroke="black" stroke-width="0.15305" stroke-miterlimit="10"/>
<path fill-rule="evenodd" clip-rule="evenodd" d="M94.6281 15.6108C95.0406 17.0863 95.8512 18.2876 97.1022 19.7958C97.1824 19.8554 97.4048 19.8345 97.3544 19.7497C95.3105 16.3164 94.7893 14.5697 94.6792 10.7935C94.6781 10.7536 94.6032 10.753 94.6029 10.7928C94.5982 11.2365 94.1295 13.9228 94.6281 15.6108" fill="black"/>
<path d="M94.6281 15.6108C95.0406 17.0863 95.8512 18.2876 97.1022 19.7958C97.1824 19.8554 97.4048 19.8345 97.3544 19.7497C95.3105 16.3164 94.7893 14.5697 94.6792 10.7935C94.6792 10.7536 94.6029 10.753 94.6029 10.7928C94.5982 11.2365 94.1295 13.9228 94.6281 15.6108V15.6108Z" stroke="black" stroke-width="0.15305" stroke-miterlimit="10"/>
<path fill-rule="evenodd" clip-rule="evenodd" d="M82.082 6.66392C82.2602 6.18134 82.0319 6.28892 81.8778 6.6463C79.9994 11.0019 79.4315 13.2356 79.5936 16.7728C79.7057 19.2582 80.1702 21.3531 80.6754 23.9255C80.7887 24.5025 80.9378 24.0312 80.8774 23.603C80.6632 22.0846 80.4985 19.2426 80.4552 18.3833C80.3667 16.6313 80.3021 15.4757 80.7741 12.4138C81.0233 10.7983 81.1904 9.07775 82.082 6.66392" fill="black"/>
<path d="M82.082 6.66392C82.2602 6.18134 82.0319 6.28892 81.8778 6.6463C79.9994 11.0019 79.4315 13.2356 79.5936 16.7728C79.7057 19.2582 80.1702 21.3531 80.6754 23.9255C80.7887 24.5025 80.9378 24.0312 80.8774 23.603C80.6632 22.0846 80.4985 19.2426 80.4552 18.3833C80.3667 16.6313 80.3021 15.4757 80.7741 12.4138C81.0233 10.7983 81.1904 9.07775 82.082 6.66392V6.66392Z" stroke="black" stroke-width="0.15305" stroke-miterlimit="10"/>
<path fill-rule="evenodd" clip-rule="evenodd" d="M9.85451 20.6166C9.94798 20.5372 10.2601 20.5248 10.2647 20.6546C10.3398 22.7348 9.85885 25.5185 12.4634 25.5858L12.9067 25.5816L22.5914 24.9605C21.5502 21.9551 14.3084 15.6043 14.3314 14.7172C14.3332 14.6484 19.9061 10.0286 22.3471 5.59607L16.5855 5.07454C15.0007 4.91996 13.6828 8.71553 13.2373 9.90715C13.1891 10.0359 12.7815 10.0282 12.7929 9.89555C12.908 8.55988 14.3357 4.04878 14.3357 4.04878L24.7896 5.04223C24.7896 5.04223 24.9789 5.27873 25.0392 5.46855C25.0993 5.65821 25.0304 5.80135 25.0304 5.80135C24.5563 6.81427 20.6835 11.1207 16.2557 14.8266C22.2887 20.9118 24.7297 23.0497 26.0892 24.2916C26.5619 24.7235 26.3696 24.8673 26.4577 25.2162C26.5117 25.4301 26.422 25.7171 26.422 25.7171L7.95813 27.089C8.60053 25.3753 8.82888 23.6185 9.42272 21.8845C9.42272 21.8845 9.60067 20.8321 9.85451 20.6166" fill="black"/>
<path d="M9.85451 20.6166C9.94798 20.5372 10.2601 20.5248 10.2647 20.6546C10.3398 22.7348 9.85885 25.5185 12.4634 25.5858L12.9067 25.5816L22.5914 24.9605C21.5502 21.9551 14.3084 15.6043 14.3314 14.7172C14.3314 14.6484 19.9061 10.0286 22.3471 5.59607L16.5855 5.07454C15.0007 4.91996 13.6828 8.71553 13.2373 9.90715C13.1891 10.0359 12.7815 10.0282 12.7929 9.89555C12.908 8.55988 14.3357 4.04878 14.3357 4.04878L24.7896 5.04223C24.7896 5.04223 24.9789 5.27873 25.0392 5.46855C25.0993 5.65821 25.0304 5.80135 25.0304 5.80135C24.5563 6.81427 20.6835 11.1207 16.2557 14.8266C22.2887 20.9118 24.7297 23.0497 26.0892 24.2916C26.5619 24.7235 26.3696 24.8673 26.4577 25.2162C26.5117 25.4301 26.422 25.7171 26.422 25.7171L7.95813 27.089C8.60053 25.3753 8.82888 23.6185 9.42272 21.8845C9.42272 21.8845 9.60067 20.8321 9.85451 20.6166V20.6166Z" stroke="black" stroke-width="0.15305" stroke-miterlimit="10"/>
<path fill-rule="evenodd" clip-rule="evenodd" d="M12.946 15.6297C12.5334 17.1054 11.7228 18.3066 10.4718 19.8148C10.3918 19.8743 10.1691 19.8535 10.2197 19.7687C12.2636 16.3354 12.7849 14.5886 12.8948 10.8124C12.8959 10.7725 12.9708 10.7719 12.9713 10.8117C12.9759 11.2554 13.4445 13.9419 12.946 15.6297" fill="black"/>
<path d="M12.946 15.6297C12.5334 17.1054 11.7228 18.3066 10.4718 19.8148C10.3918 19.8743 10.1691 19.8535 10.2197 19.7687C12.2636 16.3354 12.7849 14.5886 12.8948 10.8124C12.8948 10.7725 12.9713 10.7719 12.9713 10.8117C12.9759 11.2554 13.4445 13.9419 12.946 15.6297V15.6297Z" stroke="black" stroke-width="0.15305" stroke-miterlimit="10"/>
<path fill-rule="evenodd" clip-rule="evenodd" d="M25.4921 6.68275C25.3139 6.20032 25.5424 6.30775 25.6963 6.66513C27.5747 11.0209 28.1426 13.2545 27.9805 16.7916C27.8684 19.277 27.4039 21.372 26.8987 23.9444C26.7854 24.5214 26.6363 24.0501 26.6967 23.6219C26.911 22.1036 27.0756 19.2615 27.119 18.4022C27.2074 16.6503 27.272 15.4946 26.8 12.4326C26.5508 10.8173 26.3837 9.09673 25.4921 6.68275Z" fill="black"/>
<path d="M25.4921 6.68275C25.3139 6.20032 25.5424 6.30775 25.6963 6.66513C27.5747 11.0209 28.1426 13.2545 27.9805 16.7916C27.8684 19.277 27.4039 21.372 26.8987 23.9444C26.7854 24.5214 26.6363 24.0501 26.6967 23.6219C26.911 22.1036 27.0756 19.2615 27.119 18.4022C27.2074 16.6503 27.272 15.4946 26.8 12.4326C26.5508 10.8173 26.3837 9.09673 25.4921 6.68275Z" stroke="black" stroke-width="0.15305" stroke-miterlimit="10"/>
<path d="M33.2487 16.666C33.2487 25.3136 26.2207 32.3319 17.5613 32.3319C8.90178 32.3319 1.87378 25.3136 1.87378 16.666C1.87378 8.01844 8.90178 1.00015 17.5613 1.00015C26.2207 1.00015 33.2487 8.01844 33.2487 16.666V16.666Z" stroke="black" stroke-width="1.8626" stroke-miterlimit="10"/>
<path d="M69.4555 16.6658C69.4555 25.3134 62.4275 32.3318 53.768 32.3318C45.1086 32.3317 38.0806 25.3134 38.0806 16.6658C38.0806 8.01828 45.1086 0.999993 53.768 0.999993C62.4275 0.999993 69.4555 8.01828 69.4555 16.6658V16.6658Z" stroke="black" stroke-width="1.8626" stroke-miterlimit="10"/>
<path d="M105.662 16.6658C105.662 25.3134 98.6344 32.3318 89.9749 32.3318C81.3153 32.3317 74.2875 25.3134 74.2875 16.6658C74.2875 8.01828 81.3153 0.999993 89.9749 0.999993C98.6344 0.999993 105.662 8.01828 105.662 16.6658V16.6658Z" stroke="black" stroke-width="1.8626" stroke-miterlimit="10"/>
</svg>
