<svg xmlns="http://www.w3.org/2000/svg" xmlns:xlink="http://www.w3.org/1999/xlink" viewBox="0 0 120.629 77.358"><defs><pattern xlink:href="#a" id="w" x="0" y="0" patternTransform="matrix(.6215 0 0 .58766 -8.98 -5.843)" preserveAspectRatio="xMidYMid"/><pattern id="a" width="120.629" height="77.358" patternTransform="translate(.113 .032)" patternUnits="userSpaceOnUse" preserveAspectRatio="xMidYMid"><use xlink:href="#b" transform="rotate(14.808 35.373 -623.563) scale(1.80551)"/><path id="b" d="M104.16 11.462a3.214 3.214 0 0 0-3.203 2.98l-1.12-.36c-.138-.046-.206.166-.067.208l1.178.381c0 .427.087 1.088.52 1.752l-.063.084c-.076.102.068.277.195.106a3.215 3.215 0 0 0 1.81 1.185l.143.965c.021.141.24.109.219-.033l-.131-.885a3.204 3.204 0 0 0 3.062-1.215c.054.052.117.081.162.055.087-.051.045-.163-.019-.254.863-1.317.44-2.606.281-2.988l.358-.17c.13-.062.036-.26-.094-.2l-.356.168a3.214 3.214 0 0 0-2.875-1.779zm-.18.227-1.685 3.185-1.123-.361a2.99 2.99 0 0 1 2.809-2.824zm.36 0a2.988 2.988 0 0 1 2.496 1.648l-1.303.621zm-.18.13 1.176 2.233-2.111 1.004-.069-.463c-.02-.141-.24-.11-.218.033l.07.479-.502-.162zm2.768 1.72c.35.852.296 1.85-.205 2.681l-1.086-2.066zm-1.49.708.771 1.465c-.22-.141-.277.069-.187.14.058.04.107.092.16.137.052.049.13.035.164-.017l.188.355-3.121-.01-.133-.894 1.152.373c.137.041.202-.167.067-.21l-1.118-.36.125-.06a.11.11 0 0 0 .123.066c.07-.015.14-.018.211-.028.109-.012.134-.165.032-.21zm-4.268.496 1.02.329-.6 1.134a2.981 2.981 0 0 1-.42-1.463zm3.309.25c-.133.005-.139.207-.006.22.071.005.14.02.21.03.145.024.178-.197.036-.218-.079-.019-.16-.021-.24-.032zm-2.076.149.382.123-.283.135c-.13.06-.036.26.094.199l.455-.217.139.936-1.408-.004.183-.348c.015.027.097.07.16.01.051-.05.108-.092.163-.139.083-.07.024-.206-.082-.195-.033.003-.051.016-.096.053zm2.925.064c-.111.01-.139.166-.03.211.066.026.126.061.19.092.13.065.229-.136.098-.2-.021-.012-.208-.107-.258-.103zm-3.511 1.328 1.406.004.152 1.024a2.99 2.99 0 0 1-1.558-1.028zm1.629.004 3.05.008a2.994 2.994 0 0 1-2.89 1.068zm-2.342.596c-.03.07-.045.143-.067.215-.04.138.174.2.211.058.018-.069.045-.135.067-.203.047-.14-.167-.206-.211-.07zm5.879.09c.025.067.04.137.06.205.04.14.254.079.213-.06-.014-.075-.044-.144-.066-.215-.045-.139-.256-.067-.207.07zm-6.047.806c-.007.076.002.152.004.227.005.145.227.133.219-.01-.005-.071-.002-.143-.002-.215.002-.144-.22-.147-.221-.002zm6.2.026-.003.213c-.005.143.219.152.22.004.009-.075.001-.15 0-.225-.001-.143-.225-.141-.218.008z" style="color:#000;stroke:none;stroke-linecap:round;stroke-linejoin:round;stroke-dasharray:.22,.66;-inkscape-stroke:none"/><use xlink:href="#c" transform="rotate(-25.045 216.803 -52.54) scale(1.3825)"/><use xlink:href="#c" transform="translate(60.358 13.332)"/><use xlink:href="#c" transform="matrix(1.45 0 0 1.45 -37.452 19.744)"/><path id="c" d="M56.325 1.786c-1.006-.124-1.882-.138-2.54.887a.458.458 0 1 0-.171.889c.199.952 1.306 1.565 2.513 1.75l-.402 2.527a.458.458 0 1 0 .129.018l.404-2.528c1.152.146 2.365-.099 2.95-.812a.456.456 0 0 0 .6-.434c0-.468-.627-.627-.855-.224l-1.896-1.616.002-.002a.458.458 0 0 0 .162-.275c.104-.58-.77-.748-.897-.18zm-.01.131c.005.079.03.155.074.22l-2.305.862a.458.458 0 0 0-.181-.267c.586-.91 1.323-.95 2.412-.815zm.166.324c.037.03.08.054.125.07l-.194 1.221-2.297-.406zm.455.07 1.947 1.659-2.344-.414.194-1.215a.458.458 0 0 0 .203-.03zm-2.863.94 2.318.41-.242 1.524c-1.152-.176-2.21-.75-2.405-1.635a.458.458 0 0 0 .329-.299zm2.447.434 2.375.42c.007.14.078.27.193.351-.56.66-1.714.882-2.81.744z" style="opacity:1;stroke:none"/><use xlink:href="#d" transform="rotate(25.643 -59.98 129.931)"/><use xlink:href="#d" transform="rotate(27.927 13.943 178.548)"/><use xlink:href="#e" transform="translate(-22.497 28.365)"/><use xlink:href="#d" transform="rotate(19.821 -68.148 14.62) scale(1.12948)"/><use xlink:href="#d" id="e" x="0" y="0" transform="rotate(35.71 91.747 106.433)"/><path id="d" d="M42.32 12.024c-.65 1.391.225 3.068 1.704 3.194l.313.623a.16.16 0 0 0 .215.07l2.034-1.028a.16.16 0 0 0 .07-.214l-.313-.626c.597-.98.194-1.949-.19-2.455-1.105-1.448-3.2-.92-3.833.435zm3.474-.378c.69.9.647 1.747.224 2.33a.16.16 0 0 0 .002.138l.28.555-.398.202-.452-2.256a.16.16 0 0 0-.313.063l.468 2.342-.351.179-1.599-1.776a.16.16 0 0 0-.238.213l1.54 1.712-.406.206-.28-.554a.16.16 0 0 0-.118-.085c-1.24-.05-2.187-1.475-1.54-2.757.68-1.346 2.482-1.423 3.181-.512zm-2.053 1.482a.16.16 0 1 0 .299.117c.123-.317.7.069.89-.463a.16.16 0 0 0-.096-.206c-.083-.03-.186.01-.205.097-.055.25-.67-.104-.888.455zm1.1 3.002a.16.16 0 1 0 .144.286l1.746-.878a.16.16 0 0 0-.143-.286zm.295.588a.16.16 0 0 0-.07.215.16.16 0 0 0 .213.07l1.747-.879a.16.16 0 0 0 .072-.213.16.16 0 0 0-.215-.071zm1.89-.24a.16.16 0 0 0-.06.219c.315.612-.927 1.182-1.183.603a.16.16 0 0 0-.298.117c.42 1 2.296.112 1.76-.878a.16.16 0 0 0-.218-.06z" style="color:#000;stroke-linecap:round;stroke-linejoin:round;-inkscape-stroke:none"/><use xlink:href="#f" transform="translate(55.08 22.4) scale(1.37558)"/><use xlink:href="#f" transform="translate(52.818 -31.334)"/><use xlink:href="#f" transform="translate(63.975 -3.76)"/><path id="f" d="m35.584 33.472-.158.02a.781.781 0 0 1-.254.126l.016.135.213-.027.091.742-.255.031.021.174.69-.086-.022-.172-.223.028zm-3.369.41-.158.02a.782.782 0 0 1-.254.129l.018.132.21-.027.092.742-.256.031.022.174.691-.086-.021-.172-.223.028-.12-.97zm-3.41.43-.158.017a.782.782 0 0 1-.254.13l.015.132.213-.025.092.742-.256.031.022.172.69-.084-.022-.174-.223.028-.119-.97zm7.873.695-2.05.254.015.129 2.05-.252-.015-.13zm-2.66.008-.15.017.039.323-.323.039.02.152.322-.04.04.321.15-.02-.04-.32.32-.04-.017-.15-.322.038-.04-.32zm-.717.404-2.049.254.016.13 2.05-.253-.017-.13zm-2.312.098-.795.097.02.153.794-.1-.02-.15zm5.728.129-.213.027.033.201.08.323.12-.014v-.332zm-6.828.193-2.05.254.015.13 2.05-.253-.015-.13zm1.152.08-.795.098.018.15.795-.097-.018-.15zm4.967.149c-.013 0-.025 0-.039.002a.688.688 0 0 0-.344.158l.092.129a.498.498 0 0 1 .234-.112c.117-.014.162.055.176.143-.352.084-.492.198-.469.389.02.152.14.241.291.222a.408.408 0 0 0 .25-.15h.008l.03.092.17-.022-.065-.514c-.028-.226-.142-.346-.334-.337zm-3.385.42a.68.68 0 0 0-.379.166l.092.127a.494.494 0 0 1 .233-.116c.116-.016.162.053.177.14-.35.089-.489.205-.463.395.021.152.14.24.291.22h.002a.406.406 0 0 0 .248-.153h.006l.032.092.17-.024-.07-.513c-.032-.227-.147-.345-.339-.334zm3.522.04.023.184c-.056.068-.105.105-.176.113-.07.01-.123-.013-.132-.087-.011-.089.052-.151.285-.21zm-7.01.002a.392.392 0 0 0-.023.002c-.207.024-.275.17-.254.35l.01.084-.118.023.02.157.115-.014.082.705.21-.025-.083-.703.168-.02-.018-.166-.17.02-.01-.088c-.01-.1.022-.15.094-.158a.34.34 0 0 1 .092.003l.026-.156a.483.483 0 0 0-.141-.014zm3.63.418.026.184c-.055.069-.105.104-.175.113-.071.01-.123-.011-.133-.086-.012-.088.05-.15.283-.21z" style="font-weight:600;font-size:1.81092px;font-family:'Source Sans Pro';-inkscape-font-specification:'Source Sans Pro Semi-Bold';letter-spacing:0;stroke:none"/><use xlink:href="#g" transform="translate(56.784 47.417)"/><use xlink:href="#h" transform="translate(-36.725 71.142)"/><use xlink:href="#g" transform="translate(-4.197 40.856)"/><use xlink:href="#g" transform="translate(27.454 28.154)"/><use xlink:href="#g" id="h" x="0" y="0" transform="translate(47.082 -7.365) scale(.75618)"/><use xlink:href="#i" transform="translate(81.803 56.482) scale(1.29053)"/><use xlink:href="#i" transform="translate(40.799 -7.501)"/><use xlink:href="#i" transform="translate(-6.426 46.508)"/><use xlink:href="#i" transform="translate(49.192 32.813)"/><use xlink:href="#i" transform="translate(86.788 11.514)"/><path id="i" d="M24.539 8.032a.618.618 0 1 0 .031 0h-.03zm.01.221h.022c.22 0 .398.177.398.399a.397.397 0 0 1-.398.398.397.397 0 0 1-.399-.398c0-.215.166-.388.377-.399zm-1.072.951a.365.365 0 0 0-.344.364c0 .199.164.363.363.363.2 0 .364-.164.364-.363 0-.2-.164-.364-.364-.364h-.02zm.004.221h.015a.144.144 0 1 1-.143.143.14.14 0 0 1 .128-.143zm-.514.86a.34.34 0 0 0 0 .68h.092v1.099a1.834 1.834 0 0 0-1.233 1.73c0 1.01.822 1.832 1.832 1.832a1.834 1.834 0 0 0 1.833-1.832c0-.8-.516-1.481-1.233-1.73v-1.1h.092a.34.34 0 0 0 0-.68h-1.383zm.002.238h1.379a.11.11 0 0 1 .111.11.11.11 0 0 1-.111.108l-.244.004h-.002a.11.11 0 0 0-.063.063l-.002 1.36a.11.143 0 0 0 .077.084l.005.002c.661.202 1.156.813 1.15 1.54 0 .092-.005.171-.013.224-.92-.472-.554.413-1.2-.176-.34-.312-.747-.455-.939.031-.269.686-.704.042-1.072-.08 0-.16.025-.313.069-.459h1.484a.11.11 0 0 0 .111-.111.11.11 0 0 0-.111-.11h-1.4c.053-.113.12-.219.197-.316h1.203a.11.11 0 0 0 .111-.11.11.11 0 0 0-.111-.109h-.99c.162-.14.35-.249.558-.316h.432a.11.11 0 0 0 .111-.11.11.11 0 0 0-.111-.109h-.315v-.316h.315a.11.11 0 0 0 .111-.11.11.11 0 0 0-.111-.11h-.315v-.315h.315a.11.11 0 0 0 .111-.112.11.11 0 0 0-.111-.11h-.315l-.003-.155a.11.11 0 0 0-.067-.069l-.244-.006a.11.11 0 0 1-.111-.109c0-.061.05-.11.111-.11z" style="color:#000;stroke:none;stroke-linecap:round;-inkscape-stroke:none"/><use xlink:href="#j" transform="rotate(-10.056 302.253 -235.85) scale(1.42778)"/><use xlink:href="#j" transform="translate(80.542 11.64) scale(1.72561)"/><use xlink:href="#j" transform="translate(83.36 -11.837)"/><use xlink:href="#j" transform="translate(56.755 15.623)"/><use xlink:href="#j" transform="translate(-8.55 41.766)"/><path id="j" d="M14.27 11.838a.791.791 0 0 0-.588 1.321l-1.685 1.229.36-.42c.055-.064-.046-.15-.098-.084l-.703.82.004.006a.791.791 0 0 0-.705 1.4l-.48.714.189-.52c.03-.08-.095-.123-.121-.043l-.342.938a.791.791 0 1 0 .154.074l.72-.653c.064-.056-.023-.152-.085-.095l-.41.37.486-.72a.78.78 0 0 0 .672.002l.484.719-.41-.371c-.062-.057-.149.04-.086.095l.725.657a.792.792 0 0 0-.014 1.322l-.465.69.19-.52c.03-.08-.095-.123-.121-.043l-.352.96a.791.791 0 1 0 .14.072l.745-.673c.063-.056-.024-.152-.086-.095l-.41.37.47-.697a.79.79 0 0 0 .693-.016l.48.714-.41-.371c-.063-.057-.15.04-.087.095l.729.658a.793.793 0 1 0 .152-.068l-.346-.95c-.026-.079-.15-.036-.12.044l.189.52-.479-.71a.79.79 0 0 0-.746-1.379l-.342-.939c-.026-.08-.15-.037-.12.043l.189.52-.479-.71a.793.793 0 0 0 .348-.654.793.793 0 0 0-.395-.683l.93-.368c.079-.03.031-.152-.047-.12l-.515.204 1.703-1.246a.789.789 0 0 0 1.007-.017l.002.002 1.725 1.262-.514-.206c-.078-.031-.125.091-.046.122l.884.35a.793.793 0 0 0-.082 1.35l-.48.714.19-.52c.029-.08-.096-.123-.122-.043l-.342.938a.791.791 0 1 0 .154.074l.723-.653c.063-.055-.025-.152-.088-.095l-.41.37.487-.72a.78.78 0 0 0 .672.002l.484.719-.41-.371c-.063-.057-.15.04-.086.095l.724.657a.792.792 0 0 0-.013 1.322l-.465.69.19-.52c.029-.08-.096-.123-.122-.043l-.351.96a.791.791 0 1 0 .14.072l.746-.673c.063-.056-.025-.152-.088-.095l-.41.37.471-.697a.795.795 0 0 0 1.123-.72.793.793 0 0 0-1.068-.742l-.342-.94c-.026-.08-.15-.037-.121.043l.19.52-.48-.71a.793.793 0 0 0 .348-.654.793.793 0 0 0-.982-.77l-.691-.806c-.053-.065-.154.02-.098.084l.36.42-1.71-1.248a.79.79 0 0 0-.605-1.303zm.668.79a.668.668 0 1 1-1.334 0c0-.357.278-.648.604-.665.326-.016.73.21.73.665zm-2.963 2.832a.668.668 0 1 1-1.334 0c0-.357.278-.648.604-.664.327-.017.73.21.73.664zm5.896 0a.668.668 0 1 1-1.334 0c0-.357.278-.648.657-.657a.656.656 0 0 1 .677.657zm-8.039 1.818a.666.666 0 1 1-.666.666c0-.416.345-.666.666-.666zm2.948 0a.666.666 0 1 1-.666.666c0-.42.352-.666.666-.666zm2.949 0a.666.666 0 1 1-.666.666c0-.416.345-.666.666-.666zm2.947 0a.666.666 0 1 1-.666.666c0-.42.353-.666.666-.666zm-7.37 2.482a.666.666 0 1 1-.665.666c0-.415.345-.666.666-.666zm2.948 0a.667.667 0 1 1 0 1.334c-.874 0-.867-1.334 0-1.334zm2.95 0a.666.666 0 1 1-.667.666c0-.415.345-.666.666-.666z" style="color:#000;stroke:none;stroke-linecap:round;-inkscape-stroke:none"/><use xlink:href="#k" transform="rotate(15.992 9.31 130.92) scale(1.62738)"/><use xlink:href="#l" transform="translate(55.344 -11.28)"/><use xlink:href="#l" transform="translate(63.42 -55.527)"/><use xlink:href="#k" id="l" x="0" y="0" transform="rotate(-5.285 403.103 52.335) scale(1.28859)"/><use xlink:href="#k" transform="rotate(15 102.6 159.752)"/><path id="k" d="M2.825 23.601a1.789 1.789 0 0 0-1.79 1.789 1.789 1.789 0 0 0 1.79 1.787 1.789 1.789 0 0 0 1.783-1.701h.297v.293l.377-.377a1.789 1.789 0 0 0 1.789 1.785 1.789 1.789 0 0 0 1.783-1.701h.297v.293l.377-.377a1.789 1.789 0 0 0 1.789 1.785 1.789 1.789 0 0 0 1.789-1.787 1.789 1.789 0 0 0-1.79-1.79 1.789 1.789 0 0 0-1.788 1.79l-.377-.379v.291h-.294a1.789 1.789 0 0 0-1.787-1.701 1.789 1.789 0 0 0-1.79 1.789l-.376-.379v.291h-.293a1.789 1.789 0 0 0-1.787-1.701zm0 .238a1.55 1.55 0 0 1 1.55 1.55 1.55 1.55 0 0 1-1.55 1.55 1.55 1.55 0 0 1-1.551-1.55 1.55 1.55 0 0 1 1.55-1.55zm4.246 0a1.55 1.55 0 0 1 1.55 1.55 1.55 1.55 0 0 1-1.55 1.55 1.55 1.55 0 0 1-1.551-1.55 1.55 1.55 0 0 1 1.55-1.55zm4.246 0a1.55 1.55 0 0 1 1.55 1.55 1.55 1.55 0 0 1-1.55 1.55 1.55 1.55 0 0 1-1.551-1.55 1.55 1.55 0 0 1 1.55-1.55zm0 .15a1.4 1.4 0 0 0-1.4 1.4 1.4 1.4 0 0 0 1.4 1.4 1.4 1.4 0 0 0 1.4-1.4 1.4 1.4 0 0 0-1.4-1.4zm0 .186a1.214 1.214 0 0 1 1.215 1.215 1.214 1.214 0 0 1-1.215 1.213 1.214 1.214 0 0 1-1.215-1.213 1.214 1.214 0 0 1 1.215-1.215z" style="stroke:none"/><use xlink:href="#m" transform="translate(23.819 63.722)"/><use xlink:href="#m" transform="translate(73.368 57.413)"/><use xlink:href="#m" transform="translate(53.945 39.34)"/><use xlink:href="#m" transform="translate(78.075 1.223) scale(1.1774)"/><use xlink:href="#m" transform="translate(16.321 36.657)"/><path id="u" d="m6.709 12.546.092.113c.247-.21.377-.06.377.061 0 .209-.242.4-.658.736l-.024.127h.756l.031-.17-.47.01c.346-.293.56-.475.56-.726 0-.29-.351-.432-.664-.15zm-5.777.258L.59 14.508h1.004l.05-.242H.928l.105-.528h.588l.05-.242h-.59l.09-.45h.693l.048-.243zm2.76.605c-.024-.031.003-.132.004-.183h-.237l-.254 1.283h.286l.17-.871c.297-.316.455-.194.455-.035-.047.303-.116.605-.176.906h.287l.176-.871c.308-.327.453-.181.453-.035-.046.303-.117.605-.178.906h.287l.162-.809c.114-.492-.25-.715-.722-.267-.056-.268-.345-.362-.713-.024zm1.668.61c0 .55.552.65.91.37l-.123-.177c-.193.16-.496.147-.496-.203 0-.474.414-.73.625-.488l.158-.166c-.275-.367-1.074-.08-1.074.664zm-3.381-.766v.205h1.107v-.205zm0 .584v.205h1.107v-.205z" style="font-style:italic;font-weight:600;font-size:3.794px;font-family:'Source Sans Pro';-inkscape-font-specification:'Source Sans Pro Semi-Bold Italic';letter-spacing:0;stroke:none"/><use xlink:href="#n" transform="translate(81.15 20.896)"/><use xlink:href="#o" transform="rotate(-9.562 -212.02 -277.602)"/><use xlink:href="#o" transform="rotate(5.989 409.44 314.516)"/><use xlink:href="#p" transform="translate(3.59 10.777) scale(1.68603)"/><use xlink:href="#p" transform="translate(102.604 24.675)"/><path id="p" d="M10.516 6.511a.16.16 0 0 0 0 .32h.385V9.07a.716.716 0 0 0 .16 1.412c.216-.001.42-.1.555-.268a.716.716 0 0 0 .554.268.714.714 0 0 0 .537-.246.719.719 0 0 0 .569.287.716.716 0 0 0 .152-1.416V6.831h.79l1.66 1.66a.715.715 0 1 0 .218-.224L14.66 6.831h.229a.16.16 0 0 0 0-.32zm.697.32h.797V9.07a.716.716 0 0 0-.39.246.716.716 0 0 0-.407-.25zm1.11 0h.793v2.28a.716.716 0 0 0-.374.222.716.716 0 0 0-.42-.267zm4.162 1.647a.393.393 0 1 1-.277.67.393.393 0 0 1 .277-.67zm-5.424.896a.392.392 0 1 1 .001.784.392.392 0 0 1-.001-.784zm1.11 0a.392.392 0 1 1 0 .784.392.392 0 0 1 0-.784zm1.105.041a.392.392 0 1 1 .001.784.392.392 0 0 1-.001-.784z" style="stroke:none"/><use xlink:href="#q" id="r" x="0" y="0" transform="rotate(5.956 -133.803 898.268)"/><use xlink:href="#r" transform="translate(-51.263 44.042)"/><use xlink:href="#q" id="s" x="0" y="0" transform="rotate(17.166 .443 177.865) scale(1.29052)"/><use xlink:href="#s" transform="translate(26.512 39.318)"/><use xlink:href="#q" transform="translate(-.597 30.337)"/><path id="q" d="m6.53 1.812-5.933.213.21 5.931 5.929-.21zm-.223.252.094 2.61-2.623.093-.092-2.612zm-2.857.095.093 2.618-2.61.093-.09-2.619zm-1.168.758-.23.008.017.479-.477.017.008.229.476-.018.018.479.23-.008-.017-.479.476-.017-.007-.229-.477.018zm3.34.364-1.184.042.008.229 1.183-.043zm.783 1.63.093 2.612-2.619.097-.092-2.617zm-2.854.102.094 2.611-2.61.092-.091-2.611zm1.436.795a.135.135 0 1 0 .27 0 .134.134 0 0 0-.136-.135.134.134 0 0 0-.134.135zm-2.38.04-.325.35-.35-.324-.156.168.35.324-.325.35.168.158.326-.351.35.326.156-.168-.352-.326.327-.35zm3.114.278-1.184.045.008.229 1.186-.043zm-.7.594a.134.134 0 1 0 .133-.135.132.132 0 0 0-.132.135z" style="stroke:none"/><path id="g" d="M34.157 10.386c-.313-.004-.623.323-.499.803.122.468.67.46.844.218a.976.976 0 0 0-.103-.125c-.012.009-.023.02-.033.03-.179.16-.526.108-.526-.33 0-.378.27-.53.537-.32l.106-.128c-.075-.044-.134-.127-.23-.134a.432.432 0 0 0-.096-.014zm-.092 1.545a.14.14 0 0 0-.051.01c-.026.013-4.788 4.177-4.803 4.199-.067.094.02.159.07.185h4.784c3.363 0 4.788-.002 4.8-.007a.123.123 0 0 0 .067-.159.332.332 0 0 0-.06-.068c-.142-.128-4.74-4.142-4.755-4.15a.151.151 0 0 0-.052-.01zm-.12.379-.007 2.37-2.041-.575 2.049-1.795zm.24.002 2.118 1.851-2.12.578.003-2.43zm-3.93.74v1.139h.673v-.17h-.47v-.969h-.204zm6.872.078v1.14h.203v-.33l.164-.199.309.528.22-.002-.406-.692.344-.437-.217-.008-.41.516-.004-.516zm-5.455 1.168 1.54.424-.243.006v.35l-3.174.86zm4.84.059 1.77 1.539-3.645-1.026zm-3.254.529a.469.469 0 0 1 .246.045l-.328.09-.002-.13zm.934.115 3.857 1.084h-3.862l.006-1.084zm-.254.06.008 1.026-3.758-.004 2.78-.758.003.547h.203v-.416c.107-.006.215.005.32-.02.244-.065.27-.244.282-.333l.162-.041zm-.381.108c.005.005-.012.034-.035.059-.085.091-.341.06-.348.05zm-5.318.84-.373 1.143h.205l.09-.307h.384l.088.307h.213l-.37-1.135zm11.048 0v1.14c.209-.012.426.033.627-.036.232-.092.328-.44-.002-.565.183-.1.253-.437-.086-.521-.038-.01-.086-.011-.293-.014zm.338.148c.077-.001.152.01.207.069.034.04.04.116.014.168a.196.196 0 0 1-.1.076 1.686 1.686 0 0 1-.255.014v-.317c.043-.003.088-.008.134-.01zm-11.273.012.144.504-.285.004.14-.508zm11.139.463h.109c.177 0 .256.023.299.084a.18.18 0 0 1-.123.268 1.67 1.67 0 0 1-.282.011c-.001-.12-.007-.242-.003-.363zm-5.801.176-.002 1.148h.185l-.017-.883.275.77.125.006.281-.78-.023.891.187-.006.004-1.142h-.232l-.272.781-.28-.78z" style="stroke:none"/><path id="t" d="M10.565 2.624V3.95c0 .152.055.239.19.239a.234.234 0 0 0 .103-.02l-.026-.133a.124.124 0 0 1-.035.004c-.028 0-.053-.02-.053-.076v-1.34zm8.52 0V3.95c0 .152.055.239.189.239a.234.234 0 0 0 .103-.02l-.023-.133c-.018.004-.026.004-.037.004-.028 0-.053-.02-.053-.076v-1.34zm-4.09.09.003.205.026.815h.123l.025-.815.004-.205zm1.167.348c-.087.006-.18.063-.254.193l.102.072c.048-.093.103-.132.166-.132.121 0 .212.181.383.181.095 0 .192-.055.27-.191l-.1-.074c-.05.093-.104.132-.166.132-.121 0-.212-.181-.383-.181zm-4.662.025c-.247.012-.46.211-.46.553 0 .348.228.549.486.549.257 0 .488-.201.488-.55 0-.352-.231-.552-.488-.552zm1.143 0c-.214 0-.397.144-.397.373 0 .126.068.227.137.283v.01c-.054.037-.115.107-.115.195 0 .083.042.138.094.17v.01c-.095.065-.155.148-.155.236 0 .182.179.284.436.284.326 0 .531-.169.531-.366 0-.172-.123-.25-.367-.25h-.203c-.14 0-.184-.048-.184-.113 0-.058.028-.092.067-.125a.36.36 0 0 0 .156.037c.214 0 .385-.14.385-.365a.3.3 0 0 0-.084-.215h.213v-.138h-.366a.417.417 0 0 0-.148-.026zm1.74 0c-.12.01-.236.086-.342.184h-.008l.016-.158h-.137l-.21 1.05h.167l.147-.744c.132-.13.232-.187.314-.187.108 0 .157.054.157.16 0 .037-.007.067-.018.123l-.13.648h.167l.135-.67c.01-.058.018-.094.018-.144 0-.162-.075-.262-.252-.262zm3.703 0c-.12.01-.236.086-.342.184h-.007l.015-.158h-.136l-.211 1.05h.168l.146-.744c.132-.13.234-.187.316-.187.109 0 .155.054.155.16 0 .037-.007.067-.018.123l-.13.648h.167l.135-.67c.01-.058.018-.094.018-.144 0-.162-.075-.262-.252-.262zm1.936 0c-.248.012-.463.211-.463.553 0 .348.229.549.486.549s.488-.201.488-.55c0-.352-.23-.552-.488-.552zm1.14 0c-.214 0-.394.144-.394.373a.37.37 0 0 0 .135.283v.01a.246.246 0 0 0-.114.195c0 .083.04.138.092.17v.01c-.095.065-.152.148-.152.236 0 .182.176.284.433.284.327 0 .532-.169.532-.366 0-.172-.123-.25-.368-.25h-.203c-.14 0-.183-.048-.183-.113 0-.058.027-.092.066-.125a.36.36 0 0 0 .156.037c.214 0 .385-.14.385-.365a.3.3 0 0 0-.084-.215h.215v-.138h-.365a.428.428 0 0 0-.15-.026zm1.74 0c-.12.01-.236.086-.341.184h-.008l.018-.158h-.14l-.208 1.05h.166l.146-.744c.132-.13.235-.187.317-.187.108 0 .154.054.154.16a.577.577 0 0 1-.015.123l-.133.648h.168l.134-.67c.011-.058.018-.094.018-.144 0-.162-.075-.262-.252-.262h-.023zm3.077 0c-.121.01-.237.086-.342.184h-.008l.018-.158h-.139l-.209 1.05h.166l.147-.744c.132-.13.234-.187.316-.187.108 0 .154.054.154.16a.577.577 0 0 1-.015.123l-.133.648h.168l.135-.67c.01-.058.017-.094.017-.144 0-.162-.073-.262-.25-.262zm-13.336.129c.123 0 .223.093.223.244 0 .154-.102.25-.223.25-.121 0-.223-.096-.223-.25 0-.153.1-.244.223-.244zm8.52 0c.123 0 .222.093.222.244 0 .154-.102.25-.223.25-.12 0-.222-.096-.222-.25 0-.153.1-.244.222-.244zm-9.655.02h.018c.181 0 .302.162.302.404 0 .24-.12.4-.302.4-.18 0-.301-.16-.301-.4 0-.235.113-.395.283-.404zm8.52 0h.017c.182 0 .303.162.303.404 0 .24-.121.4-.303.4-.18 0-.3-.16-.3-.4 0-.235.112-.395.283-.404zm3.77.231v.135h.927v-.135zm-7.618.056c-.093 0-.194.057-.272.195l.102.072c.048-.093.103-.133.166-.133.121 0 .212.182.383.182.095 0 .192-.055.27-.191l-.1-.075c-.05.093-.104.131-.166.131-.121 0-.212-.181-.383-.181zm-1.107.392c-.066.007-.118.062-.118.139a.13.13 0 1 0 .26 0c0-.082-.057-.139-.129-.139zm-2.602.248a.515.515 0 0 0 .137.018h.18c.138 0 .212.031.212.129 0 .108-.133.213-.332.213-.19 0-.304-.07-.304-.182 0-.06.031-.124.107-.178zm8.521 0a.501.501 0 0 0 .135.018h.18c.138 0 .213.031.213.129 0 .108-.133.213-.332.213-.19 0-.305-.07-.305-.182 0-.06.034-.124.11-.178z" style="stroke:none"/><use xlink:href="#p" id="o" x="0" y="0" transform="translate(12.467 54.046) scale(1.26916)"/><use xlink:href="#t" id="n" x="0" y="0" transform="translate(-7.121 28.184) scale(1.33963)"/><use xlink:href="#t" transform="translate(36.925 30.261)"/><use xlink:href="#t" transform="translate(71.857 9.656)"/><use xlink:href="#t" transform="translate(33.867 71.008)"/><use xlink:href="#u" transform="translate(-.272 33.82)"/><use xlink:href="#u" id="v" x="0" y="0" transform="translate(64.691 3.052) scale(1.33928)"/><use xlink:href="#v" transform="translate(-12.807 29.386)"/><use xlink:href="#v" transform="rotate(6.697 -397.723 -358.66)"/><path id="m" d="M32.577.462a.78.78 0 0 0-.471.168.646.646 0 0 1 .295.26c.608-.332 1.015 1.165 1.062 1.35-.92.31-1.742.807-1.963.945.037-.302.123-.862.3-1.363a.656.656 0 0 1-.356-.133 5.473 5.473 0 0 0-.135.441c-.627-.172-1.716-.361-2.072.256-.362.626.376 1.492.814 1.924-.122.12-.236.239-.336.357-.773.919-.707 1.61-.117 1.873a.589.589 0 0 1 .08-.385c-.564-.372.532-1.47.65-1.585.749.66 1.617 1.13 1.797 1.226a7.184 7.184 0 0 1-1.3.418.601.601 0 0 1 .04.377 5.18 5.18 0 0 0 .444-.102c.152.581.533 1.667 1.26 1.667.731 0 1.112-1.101 1.26-1.667.164.046.324.085.476.112 1.262.224 1.758-.245 1.68-.862a.657.657 0 0 1-.371.122c-.002.717-1.562.298-1.7.26.19-.946.17-1.92.16-2.174.538.402.862.743 1.012.916a.652.652 0 0 1 .313-.22 5.59 5.59 0 0 0-.315-.333c.444-.438 1.175-1.3.815-1.924-.364-.63-1.491-.418-2.073-.258a5.378 5.378 0 0 0-.142-.469C33.365.779 32.95.464 32.576.462Zm-.756.354a.394.394 0 0 0-.385.384c0 .212.178.385.406.385a.393.393 0 0 0 .404-.385.393.393 0 0 0-.404-.384zm-1.567 1.522c.387.009.812.118.969.162a9.727 9.727 0 0 0-.162 2.172c-1.081-.807-1.72-1.704-1.494-2.094.11-.19.387-.245.687-.238zm4.621.002c.36-.005.605.078.696.234.259.45-.65 1.362-.764 1.475a9.971 9.971 0 0 0-1.799-1.228c.755-.324 1.405-.475 1.867-.481zm-2.306.684a9.88 9.88 0 0 1 1.113.642c.03.441.028.86 0 1.283a9.867 9.867 0 0 1-1.113.643 9.463 9.463 0 0 1-1.114-.643 9.61 9.61 0 0 1 0-1.283c.33-.22.702-.44 1.114-.642zm0 .761a.523.523 0 0 0-.524.524.523.523 0 0 0 .524.523.523.523 0 0 0 .523-.523.523.523 0 0 0-.523-.524zM35.58 4.85a.394.394 0 0 0-.384.385c0 .21.178.384.406.384a.393.393 0 0 0 .404-.384.393.393 0 0 0-.404-.385zm-1.943.584c-.177 1.471-.662 2.342-1.068 2.342-.51 0-.838-1.178-.895-1.399.925-.31 1.744-.807 1.963-.943zm-3.422.646a.394.394 0 0 0-.385.385c0 .211.179.385.407.385a.393.393 0 0 0 .404-.385.393.393 0 0 0-.404-.385z" style="stroke:none"/></pattern></defs><path d="M0 0h120.629v77.358H0Z" style="fill:url(#w);stroke:none"/></svg>