<svg width="170" height="89" viewBox="0 0 170 89" fill="none" xmlns="http://www.w3.org/2000/svg">
<path d="M169.677 80.1633V74.2237C169.677 70.6989 167.039 67.8694 163.821 67.8694C162.599 67.8694 161.351 68.425 160.407 69.2571L159.852 68.2014H157.022V80.1633H160.519V74.2237C160.519 72.5026 161.74 70.9767 163.405 70.9767C165.071 70.9767 166.29 72.5026 166.29 74.2237V80.1633H169.677ZM155.382 75.2794C155.466 74.8904 155.494 74.5286 155.494 74.1396C155.494 70.6163 152.636 67.7853 149.138 67.7853C145.64 67.7853 142.782 70.6163 142.782 74.1396C142.782 77.6373 145.64 80.4967 149.138 80.4967C151.053 80.4967 152.801 79.6362 153.939 78.277L151.329 76.5274C150.776 77.0817 150.025 77.4165 149.276 77.4165C148.473 77.4165 147.722 77.0817 147.14 76.4448C146.834 76.11 146.613 75.7225 146.447 75.2794H155.382ZM152.135 73.1694H146.391C146.558 72.6707 146.807 72.1977 147.14 71.8102C147.722 71.199 148.473 70.8656 149.276 70.8656C150.054 70.8656 150.83 71.199 151.386 71.8102C151.747 72.1977 151.996 72.6707 152.135 73.1694ZM138.535 71.4497H141.31V68.2014H138.535V63.7619H135.01V68.2014H132.513V71.4497H135.01V80.1633H138.535V71.4497ZM125.047 71.5324C125.213 70.2558 126.795 70.1176 129.126 71.7817L130.736 69.2571C129.126 68.2854 128.016 67.8409 125.963 67.8409C123.688 67.8409 121.716 69.2842 121.716 71.4768C121.716 73.7792 123.326 74.5015 125.657 75.2224C126.546 75.5016 127.407 75.778 127.407 76.6671C127.407 78.1644 124.742 78.0818 122.994 76.0844L120.773 78.3326C122.245 79.8029 124.298 80.4967 126.462 80.4967C128.904 80.4967 130.874 78.6645 130.874 76.7497C130.874 74.6952 129.293 73.5583 127.6 73.0582C126.213 72.5867 124.909 72.42 125.047 71.5324ZM118.941 83.4373V68.2014H115.333V83.4373C115.333 84.1312 115.194 85.4647 113.973 85.4647H113.03V88.8499H114.306C116.971 88.8499 118.941 86.5731 118.941 83.4373ZM115.305 64.6495H118.912V60.7643H115.305V64.6495ZM113.444 74.1681C113.444 70.6718 110.504 67.8409 106.812 67.8409C103.149 67.8409 100.207 70.6718 100.207 74.1681C100.207 77.6929 103.149 80.4967 106.812 80.4967C110.504 80.4967 113.444 77.6929 113.444 74.1681ZM109.948 74.1396C109.948 75.0301 109.643 75.8607 109.06 76.5004C108.451 77.1102 107.7 77.4435 106.841 77.4435C106.036 77.4435 105.231 77.1102 104.675 76.5004C104.037 75.8607 103.732 75.0571 103.732 74.1681C103.732 73.309 104.037 72.4755 104.675 71.8658C105.231 71.2261 106.036 70.8941 106.841 70.8941C107.7 70.8941 108.451 71.2261 109.06 71.8658C109.643 72.4755 109.948 73.2805 109.948 74.1396ZM98.1528 71.3101L99.512 68.2299C98.8737 68.0076 98.1799 67.8965 97.486 67.8965C95.9046 67.8965 94.3217 68.3951 93.4341 69.562L92.9355 68.2014H90.2427V80.1633H93.7119V73.5583C94.0724 71.6435 96.1268 70.4225 98.1528 71.3101ZM84.8573 64.594H90.2413V60.7088H75.5596V64.594H80.9721V80.1633H84.8573V64.594ZM33.4733 79.8356L89.5603 23.79L21.8048 19.8876L22.3947 21.6358L66.1934 30.0545L33.4733 79.8356ZM17.9296 17.1052L77.4003 20.5501L0.821533 -3.55236e-05L31.3177 60.629L32.5372 59.2441L17.9296 17.1052ZM30.8546 65.4417L4.10409 12.2141L24.5973 88.8114L61.8552 32.0847L60.0443 31.7214L30.8546 65.4417Z" fill="black"/>
</svg>
